<svg width="320" height="180" viewBox="0 0 320 180" fill="none" xmlns="http://www.w3.org/2000/svg">
  <rect width="320" height="180" rx="18" fill="#FFF200"/>
  <rect x="24" y="26" width="140" height="10" rx="5" fill="#052A5F"/>
  <rect x="24" y="42" width="96" height="6" rx="3" fill="#0B3C86"/>
  <rect x="20" y="66" width="70" height="96" rx="12" fill="#FFFFFF"/>
  <rect x="98" y="66" width="70" height="96" rx="12" fill="#FFFFFF"/>
  <rect x="176" y="66" width="70" height="96" rx="12" fill="#FFFFFF"/>
  <rect x="254" y="66" width="46" height="96" rx="12" fill="#FFFFFF"/>
  <rect x="28" y="74" width="54" height="40" rx="8" fill="#E5E7EB"/>
  <rect x="106" y="74" width="54" height="40" rx="8" fill="#E5E7EB"/>
  <rect x="184" y="74" width="54" height="40" rx="8" fill="#E5E7EB"/>
  <rect x="262" y="74" width="30" height="40" rx="8" fill="#E5E7EB"/>
  <rect x="28" y="124" width="26" height="6" rx="3" fill="#0B3C86"/>
  <rect x="106" y="124" width="26" height="6" rx="3" fill="#0B3C86"/>
  <rect x="184" y="124" width="26" height="6" rx="3" fill="#0B3C86"/>
  <rect x="262" y="124" width="20" height="6" rx="3" fill="#0B3C86"/>
</svg>
